<svg width="216" height="216" viewBox="0 0 216 216" fill="none" xmlns="http://www.w3.org/2000/svg">
<path fill-rule="evenodd" clip-rule="evenodd" d="M130.68 85.1427C137.42 86.5757 146.275 90.4687 148.278 92.8787C149.176 93.9587 148.472 94.1427 144.513 93.8637C135.807 93.2497 126.468 97.7757 122.371 104.596C121.178 106.582 120.125 108.324 120.031 108.468C119.938 108.611 117.934 108.049 115.579 107.218C110.381 105.384 104.092 105.34 100.049 107.111C97.1092 108.399 96.9402 108.312 91.5492 102.728C85.2662 96.2197 78.4382 93.2757 71.0002 93.8667C68.5522 94.0617 66.5492 93.8997 66.5492 93.5057C66.5492 93.1127 68.4732 91.6637 70.8242 90.2857C75.3472 87.6347 83.3582 85.2857 93.1322 83.7427C100.778 82.5357 122.171 83.3337 130.68 85.1427ZM79.9932 105.974C93.7882 113.788 88.1912 134.707 72.3052 134.707C66.1242 134.707 61.9552 132.368 59.4542 127.497C56.8622 122.448 57.0572 119.025 60.2992 112.704C64.7562 104.015 72.1022 101.504 79.9932 105.974ZM149.587 105.957C155.519 108.948 157.78 113.31 157.299 120.835C156.849 127.877 154.63 131.341 148.967 133.846C135.339 139.875 122.984 123.843 130.473 109.848C131.87 107.24 138.753 103.762 142.587 103.729C143.983 103.717 147.133 104.72 149.587 105.957ZM114.36 118.201C116.207 119.756 117.587 122.093 118.02 124.405C120.271 136.401 129.726 144.202 142.799 144.846C145.412 144.975 147.549 145.414 147.549 145.821C147.549 147.256 139.979 152.827 134.049 155.756C127.061 159.208 116.435 161.665 108.387 161.69C94.9322 161.731 79.3832 156.605 71.0392 149.378L67.0492 145.922L73.0492 145.206C80.7152 144.291 86.1892 141.913 90.4612 137.641C94.2892 133.813 97.4942 127.466 97.5272 123.648C97.5892 116.402 108.158 112.982 114.36 118.201Z" fill="black"/>
<path d="M130.68 85.1427C137.42 86.5757 146.275 90.4687 148.278 92.8787C149.176 93.9587 148.472 94.1427 144.513 93.8637C135.807 93.2497 126.468 97.7757 122.371 104.596C121.178 106.582 120.125 108.324 120.031 108.468C119.938 108.611 117.934 108.049 115.579 107.218C110.381 105.384 104.092 105.34 100.049 107.111C97.1092 108.399 96.9402 108.312 91.5492 102.728C85.2662 96.2197 78.4382 93.2757 71.0002 93.8667C68.5522 94.0617 66.5492 93.8997 66.5492 93.5057C66.5492 93.1127 68.4732 91.6637 70.8242 90.2857C75.3472 87.6347 83.3582 85.2857 93.1322 83.7427C100.778 82.5357 122.171 83.3337 130.68 85.1427Z" fill="#E23A3A"/>
<path d="M114.36 118.201C116.207 119.756 117.587 122.093 118.02 124.405C120.271 136.401 129.726 144.202 142.799 144.846C145.412 144.975 147.549 145.414 147.549 145.821C147.549 147.256 139.979 152.827 134.049 155.756C127.061 159.208 116.435 161.665 108.387 161.69C94.9322 161.731 79.3832 156.605 71.0392 149.378L67.0492 145.922L73.0492 145.206C80.7152 144.291 86.1892 141.913 90.4612 137.641C94.2892 133.813 97.4942 127.466 97.5272 123.648C97.5892 116.402 108.158 112.982 114.36 118.201Z" fill="#E23A3A"/>
<path d="M79.9932 105.974C93.7882 113.788 88.1912 134.707 72.3052 134.707C66.1242 134.707 61.9552 132.368 59.4542 127.497C56.8622 122.448 57.0572 119.025 60.2992 112.704C64.7562 104.015 72.1022 101.504 79.9932 105.974Z" fill="white"/>
<path d="M149.587 105.957C155.519 108.948 157.78 113.31 157.299 120.835C156.849 127.877 154.63 131.341 148.967 133.846C135.339 139.875 122.984 123.843 130.473 109.848C131.87 107.24 138.753 103.762 142.587 103.729C143.983 103.717 147.133 104.72 149.587 105.957Z" fill="white"/>
<path fill-rule="evenodd" clip-rule="evenodd" d="M79.0492 30.7957C28.5522 49.2687 21.7422 51.8457 19.9492 53.1557C18.3062 54.3577 18.4852 54.6307 22.1032 56.4507C24.2732 57.5427 27.8492 58.9937 30.0492 59.6747C32.2492 60.3557 39.3902 63.4397 45.9182 66.5287L57.7862 72.1437L57.2992 78.9607C56.7422 86.7387 56.2592 87.6407 53.8052 85.4857C50.8522 82.8927 31.0072 72.7067 28.9092 72.7067C25.2012 72.7067 14.5312 76.8947 13.1262 78.9007C12.0662 80.4137 11.9702 81.6167 12.7352 83.8117C14.0042 87.4507 17.4202 88.4237 23.3532 86.8367C27.7292 85.6667 27.8702 85.7087 36.8062 90.9337C47.7532 97.3357 48.5562 98.3717 46.2762 103.153C44.8442 106.155 44.0742 106.706 41.3152 106.703C39.5192 106.701 36.5162 105.689 34.6422 104.453C32.7672 103.218 30.0672 101.425 28.6422 100.469C27.1382 99.4607 25.2092 98.9877 24.0492 99.3427C21.7152 100.056 4.86619 110.237 2.29919 112.484C-0.0768148 114.565 0.0931849 119.251 2.63618 121.794C5.27218 124.43 7.67318 123.891 16.6632 118.64C20.3672 116.477 23.9942 114.728 24.7232 114.755C25.4532 114.781 30.5482 116.747 36.0462 119.125C44.8502 122.932 46.1482 123.815 46.9252 126.521C48.1962 130.953 47.2942 132.299 41.8422 134.11C33.7342 136.803 6.54919 158.209 6.54919 161.901C6.54919 164.618 10.5452 168.707 13.2002 168.707C14.7672 168.707 18.3942 166.524 22.8782 162.884C44.7682 145.11 49.6832 142.684 53.7132 147.661C53.7132 147.661 56.7407 152.895 59.4912 155.54C60.9145 156.908 63.4322 158.707 63.4322 158.707L55.3392 170.457C50.8882 176.92 46.7962 183.365 46.2452 184.781C43.9592 190.656 48.7082 196.322 53.9252 193.945C55.2322 193.35 58.9352 189.115 62.1552 184.535C69.5182 174.057 75.3102 167.707 77.5012 167.707C78.4352 167.707 82.5402 168.914 86.6242 170.39C93.2432 172.781 95.5142 173.08 107.549 173.14C120.008 173.202 121.636 172.988 128.669 170.37C132.86 168.81 137.342 167.685 138.628 167.87C140.246 168.103 143.292 171.327 148.508 178.325C152.656 183.889 156.949 189.613 158.049 191.044C162.225 196.478 169.549 194.562 169.549 188.037C169.549 185.26 158.274 166.578 154.581 163.236C152.002 160.902 152.018 159.497 154.653 157.113C155.81 156.066 157.879 153.294 159.251 150.953C161.858 146.504 164.762 145.042 168.917 146.085C171.304 146.684 186.303 157.714 194.44 164.854C200.357 170.046 204.739 170.075 207.445 164.938C209.41 161.207 206.992 158.014 194.543 147.898C183.263 138.731 176.741 134.641 171.328 133.338C167.667 132.457 165.946 129.202 167.553 126.2C168.717 124.025 187.514 114.707 190.737 114.707C191.509 114.707 195.425 116.732 199.44 119.207C207.578 124.225 209.638 124.618 212.549 121.707C214.731 119.525 215.102 116.609 213.565 113.736C212.477 111.704 192.638 98.7067 190.624 98.7067C189.927 98.7067 188.163 99.5497 186.703 100.581C181.309 104.388 173.824 107.75 172.162 107.112C170.359 106.42 167.549 101.724 167.549 99.4017C167.549 98.6287 171.711 95.2957 176.799 91.9937L186.049 85.9907L192.419 87.0587C198.511 88.0807 198.872 88.0257 200.669 85.8067C205.02 80.4337 201.328 75.6457 191.39 73.7707L184.84 72.5347L177.444 76.2547C173.377 78.3007 167.622 81.5247 164.657 83.4197C158.218 87.5327 157.587 87.0467 157.564 77.9707L157.549 71.7357L163.299 68.8747C166.461 67.3017 175.233 63.5827 182.791 60.6107C190.349 57.6387 196.537 54.6927 196.541 54.0637C196.551 52.6967 197.775 53.2037 173.549 44.5357C162.824 40.6977 143.646 33.7667 130.932 29.1327C118.218 24.4987 107.418 20.7547 106.932 20.8127C106.446 20.8707 93.8992 25.3637 79.0492 30.7957ZM148.278 92.8787C146.275 90.4687 137.42 86.5757 130.68 85.1427C122.171 83.3337 100.778 82.5357 93.1322 83.7427C83.3582 85.2857 75.3472 87.6347 70.8242 90.2857C68.4732 91.6637 66.5492 93.1127 66.5492 93.5057C66.5492 93.8997 68.5522 94.0617 71.0002 93.8667C78.4382 93.2757 85.2662 96.2197 91.5492 102.728C96.9402 108.312 97.1092 108.399 100.049 107.111C104.092 105.34 110.381 105.384 115.579 107.218C117.934 108.049 119.938 108.611 120.031 108.468C120.125 108.324 121.178 106.582 122.371 104.596C126.468 97.7757 135.807 93.2497 144.513 93.8637C148.472 94.1427 149.176 93.9587 148.278 92.8787ZM72.3052 134.707C88.1912 134.707 93.7882 113.788 79.9932 105.974C72.1022 101.504 64.7562 104.015 60.2992 112.704C57.0572 119.025 56.8622 122.448 59.4542 127.497C61.9552 132.368 66.1242 134.707 72.3052 134.707ZM157.299 120.835C157.78 113.31 155.519 108.948 149.587 105.957C147.133 104.72 143.983 103.717 142.587 103.729C138.753 103.762 131.87 107.24 130.473 109.848C122.984 123.843 135.339 139.875 148.967 133.846C154.63 131.341 156.849 127.877 157.299 120.835ZM118.02 124.405C117.587 122.093 116.207 119.756 114.36 118.201C108.158 112.982 97.5892 116.402 97.5272 123.648C97.4942 127.466 94.2892 133.813 90.4612 137.641C86.1892 141.913 80.7152 144.291 73.0492 145.206L67.0492 145.922L71.0392 149.378C79.3832 156.605 94.9322 161.731 108.387 161.69C116.435 161.665 127.061 159.208 134.049 155.756C139.979 152.827 147.549 147.256 147.549 145.821C147.549 145.414 145.412 144.975 142.799 144.846C129.726 144.202 120.271 136.401 118.02 124.405Z" fill="black"/>
<path d="M117.618 140.812C117.618 144.126 114.932 146.812 111.618 146.812H103.618C100.304 146.812 97.6182 144.126 97.6182 140.812C97.6182 137.498 100.304 134.812 103.618 134.812H111.618C114.932 134.812 117.618 137.498 117.618 140.812Z" fill="black"/>
</svg>
