<svg width="853" height="174" viewBox="0 0 853 174" fill="none" xmlns="http://www.w3.org/2000/svg">
<path fill-rule="evenodd" clip-rule="evenodd" d="M130.062 64.3307C136.802 65.7637 145.657 69.6567 147.66 72.0667C148.558 73.1467 147.854 73.3307 143.895 73.0517C135.189 72.4377 125.85 76.9637 121.753 83.7837C120.56 85.7697 119.507 87.5117 119.413 87.6557C119.32 87.7987 117.316 87.2367 114.961 86.4057C109.763 84.5717 103.474 84.5277 99.431 86.2987C96.491 87.5867 96.322 87.4997 90.931 81.9157C84.648 75.4077 77.82 72.4637 70.382 73.0547C67.934 73.2497 65.931 73.0877 65.931 72.6937C65.931 72.3007 67.855 70.8517 70.206 69.4737C74.729 66.8227 82.74 64.4737 92.514 62.9307C100.16 61.7237 121.553 62.5217 130.062 64.3307ZM79.375 85.1617C93.17 92.9757 87.573 113.895 71.687 113.895C65.506 113.895 61.337 111.556 58.836 106.685C56.244 101.636 56.439 98.2127 59.681 91.8917C64.138 83.2027 71.484 80.6917 79.375 85.1617ZM148.969 85.1447C154.901 88.1357 157.162 92.4977 156.681 100.023C156.231 107.065 154.012 110.529 148.349 113.034C134.721 119.063 122.366 103.031 129.855 89.0357C131.252 86.4277 138.135 82.9497 141.969 82.9167C143.365 82.9047 146.515 83.9077 148.969 85.1447ZM113.742 97.3887C115.589 98.9437 116.969 101.281 117.402 103.593C119.653 115.589 129.108 123.39 142.181 124.034C144.794 124.163 146.931 124.602 146.931 125.009C146.931 126.444 139.361 132.015 133.431 134.944C126.443 138.396 115.817 140.853 107.769 140.878C94.314 140.919 78.765 135.793 70.421 128.566L66.431 125.11L72.431 124.394C80.097 123.479 85.571 121.101 89.843 116.829C93.671 113.001 96.876 106.654 96.909 102.836C96.971 95.5897 107.54 92.1697 113.742 97.3887Z" fill="black"/>
<path d="M130.062 64.3307C136.802 65.7637 145.657 69.6567 147.66 72.0667C148.558 73.1467 147.854 73.3307 143.895 73.0517C135.189 72.4377 125.85 76.9637 121.753 83.7837C120.56 85.7697 119.507 87.5117 119.413 87.6557C119.32 87.7987 117.316 87.2367 114.961 86.4057C109.763 84.5717 103.474 84.5277 99.431 86.2987C96.491 87.5867 96.322 87.4997 90.931 81.9157C84.648 75.4077 77.82 72.4637 70.382 73.0547C67.934 73.2497 65.931 73.0877 65.931 72.6937C65.931 72.3007 67.855 70.8517 70.206 69.4737C74.729 66.8227 82.74 64.4737 92.514 62.9307C100.16 61.7237 121.553 62.5217 130.062 64.3307Z" fill="#E23A3A"/>
<path d="M113.742 97.3887C115.589 98.9437 116.969 101.281 117.402 103.593C119.653 115.589 129.108 123.39 142.181 124.034C144.794 124.163 146.931 124.602 146.931 125.009C146.931 126.444 139.361 132.015 133.431 134.944C126.443 138.396 115.817 140.853 107.769 140.878C94.314 140.919 78.765 135.793 70.421 128.566L66.431 125.11L72.431 124.394C80.097 123.479 85.571 121.101 89.843 116.829C93.671 113.001 96.876 106.654 96.909 102.836C96.971 95.5897 107.54 92.1697 113.742 97.3887Z" fill="#E23A3A"/>
<path d="M79.375 85.1617C93.17 92.9757 87.573 113.895 71.687 113.895C65.506 113.895 61.337 111.556 58.836 106.685C56.244 101.636 56.439 98.2127 59.681 91.8917C64.138 83.2027 71.484 80.6917 79.375 85.1617Z" fill="white"/>
<path d="M148.969 85.1447C154.901 88.1357 157.162 92.4977 156.681 100.023C156.231 107.065 154.012 110.529 148.349 113.034C134.721 119.063 122.366 103.031 129.855 89.0357C131.252 86.4277 138.135 82.9497 141.969 82.9167C143.365 82.9047 146.515 83.9077 148.969 85.1447Z" fill="white"/>
<path fill-rule="evenodd" clip-rule="evenodd" d="M78.431 9.98366C27.934 28.4567 21.124 31.0337 19.331 32.3437C17.688 33.5457 17.867 33.8187 21.485 35.6387C23.655 36.7307 27.231 38.1817 29.431 38.8627C31.631 39.5437 38.772 42.6277 45.3 45.7167L57.168 51.3317L56.681 58.1487C56.124 65.9267 55.641 66.8287 53.187 64.6737C50.234 62.0807 30.389 51.8947 28.291 51.8947C24.583 51.8947 13.913 56.0827 12.508 58.0887C11.448 59.6017 11.352 60.8047 12.117 62.9997C13.386 66.6387 16.802 67.6117 22.735 66.0247C27.111 64.8547 27.252 64.8967 36.188 70.1217C47.135 76.5237 47.938 77.5597 45.658 82.3407C44.226 85.3427 43.456 85.8937 40.697 85.8907C38.901 85.8887 35.898 84.8767 34.024 83.6407C32.149 82.4057 29.449 80.6127 28.024 79.6567C26.52 78.6487 24.591 78.1757 23.431 78.5307C21.097 79.2437 4.24802 89.4247 1.68102 91.6717C-0.694979 93.7527 -0.524979 98.4387 2.01802 100.982C4.65402 103.618 7.05502 103.079 16.045 97.8277C19.749 95.6647 23.376 93.9157 24.105 93.9427C24.835 93.9687 29.93 95.9347 35.428 98.3127C44.232 102.12 45.53 103.003 46.307 105.709C47.578 110.141 46.676 111.487 41.224 113.298C33.116 115.991 5.93102 137.397 5.93102 141.089C5.93102 143.806 9.92702 147.895 12.582 147.895C14.149 147.895 17.776 145.712 22.26 142.072C44.15 124.298 49.065 121.872 53.095 126.849C53.095 126.849 56.1225 132.083 58.873 134.728C60.2963 136.096 62.814 137.895 62.814 137.895L54.721 149.645C50.27 156.108 46.178 162.553 45.627 163.969C43.341 169.844 48.09 175.51 53.307 173.133C54.614 172.538 58.317 168.303 61.537 163.723C68.9 153.245 74.692 146.895 76.883 146.895C77.817 146.895 81.922 148.102 86.006 149.578C92.625 151.969 94.896 152.268 106.931 152.328C119.39 152.39 121.018 152.176 128.051 149.558C132.242 147.998 136.724 146.873 138.01 147.058C139.628 147.291 142.674 150.515 147.89 157.513C152.038 163.077 156.331 168.801 157.431 170.232C161.607 175.666 168.931 173.75 168.931 167.225C168.931 164.448 157.656 145.766 153.963 142.424C151.384 140.09 151.4 138.685 154.035 136.301C155.192 135.254 157.261 132.482 158.633 130.141C161.24 125.692 164.144 124.23 168.299 125.273C170.686 125.872 185.685 136.902 193.822 144.042C199.739 149.234 204.121 149.263 206.827 144.126C208.792 140.395 206.374 137.202 193.925 127.086C182.645 117.919 176.123 113.829 170.71 112.526C167.049 111.645 165.328 108.39 166.935 105.388C168.099 103.213 186.896 93.8947 190.119 93.8947C190.891 93.8947 194.807 95.9197 198.822 98.3947C206.96 103.413 209.02 103.806 211.931 100.895C214.113 98.7127 214.484 95.7967 212.947 92.9237C211.859 90.8917 192.02 77.8947 190.006 77.8947C189.309 77.8947 187.545 78.7377 186.085 79.7687C180.691 83.5757 173.206 86.9377 171.544 86.2997C169.741 85.6077 166.931 80.9117 166.931 78.5897C166.931 77.8167 171.093 74.4837 176.181 71.1817L185.431 65.1787L191.801 66.2467C197.893 67.2687 198.254 67.2137 200.051 64.9947C204.402 59.6217 200.71 54.8337 190.772 52.9587L184.222 51.7227L176.826 55.4427C172.759 57.4887 167.004 60.7127 164.039 62.6077C157.6 66.7207 156.969 66.2347 156.946 57.1587L156.931 50.9237L162.681 48.0627C165.843 46.4897 174.615 42.7707 182.173 39.7987C189.731 36.8267 195.919 33.8807 195.923 33.2517C195.933 31.8847 197.157 32.3917 172.931 23.7237C162.206 19.8857 143.028 12.9547 130.314 8.32066C117.6 3.68666 106.8 -0.0573351 106.314 0.000664896C105.828 0.0586649 93.281 4.55166 78.431 9.98366ZM147.66 72.0667C145.657 69.6567 136.802 65.7637 130.062 64.3307C121.553 62.5217 100.16 61.7237 92.514 62.9307C82.74 64.4737 74.729 66.8227 70.206 69.4737C67.855 70.8517 65.931 72.3007 65.931 72.6937C65.931 73.0877 67.934 73.2497 70.382 73.0547C77.82 72.4637 84.648 75.4077 90.931 81.9157C96.322 87.4997 96.491 87.5867 99.431 86.2987C103.474 84.5277 109.763 84.5717 114.961 86.4057C117.316 87.2367 119.32 87.7987 119.413 87.6557C119.507 87.5117 120.56 85.7697 121.753 83.7837C125.85 76.9637 135.189 72.4377 143.895 73.0517C147.854 73.3307 148.558 73.1467 147.66 72.0667ZM71.687 113.895C87.573 113.895 93.17 92.9757 79.375 85.1617C71.484 80.6917 64.138 83.2027 59.681 91.8917C56.439 98.2127 56.244 101.636 58.836 106.685C61.337 111.556 65.506 113.895 71.687 113.895ZM156.681 100.023C157.162 92.4977 154.901 88.1357 148.969 85.1447C146.515 83.9077 143.365 82.9047 141.969 82.9167C138.135 82.9497 131.252 86.4277 129.855 89.0357C122.366 103.031 134.721 119.063 148.349 113.034C154.012 110.529 156.231 107.065 156.681 100.023ZM117.402 103.593C116.969 101.281 115.589 98.9437 113.742 97.3887C107.54 92.1697 96.971 95.5897 96.909 102.836C96.876 106.654 93.671 113.001 89.843 116.829C85.571 121.101 80.097 123.479 72.431 124.394L66.431 125.11L70.421 128.566C78.765 135.793 94.314 140.919 107.769 140.878C115.817 140.853 126.443 138.396 133.431 134.944C139.361 132.015 146.931 126.444 146.931 125.009C146.931 124.602 144.794 124.163 142.181 124.034C129.108 123.39 119.653 115.589 117.402 103.593Z" fill="black"/>
<path d="M117 120C117 123.314 114.314 126 111 126H103C99.6863 126 97 123.314 97 120C97 116.686 99.6863 114 103 114H111C114.314 114 117 116.686 117 120Z" fill="black"/>
<path d="M290.236 114.109C294.194 114.109 296.994 113.723 298.635 112.952C300.276 112.18 301.097 110.686 301.097 108.468C301.097 106.732 300.035 105.238 297.911 103.984C295.787 102.634 292.553 101.139 288.209 99.5001C284.83 98.2465 281.741 96.9448 278.942 95.5948C276.239 94.2448 273.922 92.6537 271.991 90.8216C270.06 88.8931 268.564 86.627 267.502 84.0235C266.44 81.42 265.909 78.2861 265.909 74.6218C265.909 67.4862 268.564 61.8452 273.873 57.6988C279.183 53.5525 286.471 51.4793 295.739 51.4793C300.373 51.4793 304.813 51.9132 309.061 52.781C313.309 53.5525 316.687 54.4203 319.197 55.3846L315.432 72.1629C312.922 71.2951 310.171 70.5237 307.179 69.8487C304.282 69.1737 301 68.8362 297.332 68.8362C290.574 68.8362 287.195 70.7165 287.195 74.4772C287.195 75.345 287.34 76.1165 287.63 76.7914C287.919 77.4664 288.499 78.1414 289.368 78.8164C290.236 79.395 291.395 80.07 292.843 80.8414C294.387 81.5164 296.318 82.2878 298.635 83.1556C303.365 84.8913 307.275 86.627 310.364 88.3627C313.453 90.002 315.867 91.8341 317.605 93.8591C319.439 95.7876 320.694 97.9572 321.369 100.368C322.142 102.779 322.528 105.575 322.528 108.757C322.528 116.278 319.68 121.968 313.984 125.825C308.385 129.682 300.421 131.61 290.092 131.61C283.334 131.61 277.687 131.032 273.149 129.875C268.709 128.718 265.619 127.753 263.882 126.982L267.502 109.48C271.17 110.927 274.935 112.084 278.797 112.952C282.658 113.723 286.471 114.109 290.236 114.109Z" fill="black"/>
<path d="M387.451 92.1234C387.451 85.4699 385.955 80.1664 382.963 76.2129C379.97 72.1629 375.529 70.138 369.64 70.138C367.71 70.138 365.924 70.2344 364.283 70.4272C362.642 70.5237 361.29 70.6683 360.228 70.8612V109.77C361.58 110.637 363.317 111.361 365.441 111.939C367.661 112.518 369.882 112.807 372.102 112.807C382.335 112.807 387.451 105.912 387.451 92.1234ZM409.462 91.5448C409.462 97.4269 408.738 102.779 407.29 107.6C405.842 112.421 403.718 116.568 400.918 120.039C398.119 123.51 394.643 126.21 390.492 128.139C386.341 130.068 381.563 131.032 376.157 131.032C373.164 131.032 370.365 130.743 367.758 130.164C365.152 129.585 362.642 128.766 360.228 127.705V156.344H338.652V56.1078C340.583 55.5292 342.803 54.9989 345.313 54.5167C347.823 53.9382 350.43 53.456 353.133 53.0703C355.932 52.6846 358.732 52.3953 361.531 52.2025C364.427 51.9132 367.179 51.7685 369.785 51.7685C376.06 51.7685 381.659 52.7328 386.583 54.6614C391.506 56.4935 395.657 59.1452 399.036 62.6166C402.415 65.9916 404.973 70.138 406.711 75.0558C408.545 79.9735 409.462 85.4699 409.462 91.5448Z" fill="black"/>
<path d="M447.62 129.585H426.044V53.5042H447.62V129.585ZM449.648 31.5188C449.648 35.4723 448.344 38.6062 445.738 40.9205C443.228 43.1383 440.235 44.2472 436.76 44.2472C433.285 44.2472 430.244 43.1383 427.637 40.9205C425.127 38.6062 423.872 35.4723 423.872 31.5188C423.872 27.5653 425.127 24.4796 427.637 22.2618C430.244 19.9475 433.285 18.7904 436.76 18.7904C440.235 18.7904 443.228 19.9475 445.738 22.2618C448.344 24.4796 449.648 27.5653 449.648 31.5188Z" fill="black"/>
<path d="M486.292 90.9663C486.292 97.6197 487.789 102.971 490.781 107.021C493.774 111.071 498.215 113.096 504.103 113.096C506.034 113.096 507.82 113.048 509.461 112.952C511.102 112.759 512.454 112.566 513.516 112.373V73.1754C512.164 72.3076 510.378 71.5844 508.158 71.0058C506.034 70.4272 503.862 70.138 501.642 70.138C491.409 70.138 486.292 77.0807 486.292 90.9663ZM535.092 127.127C533.161 127.705 530.941 128.284 528.431 128.862C525.921 129.344 523.266 129.778 520.466 130.164C517.763 130.55 514.964 130.839 512.068 131.032C509.268 131.321 506.565 131.466 503.959 131.466C497.684 131.466 492.084 130.55 487.161 128.718C482.238 126.885 478.087 124.282 474.708 120.907C471.329 117.436 468.723 113.289 466.888 108.468C465.151 103.55 464.282 98.0537 464.282 91.9788C464.282 85.8074 465.054 80.2628 466.599 75.345C468.143 70.3308 470.364 66.088 473.26 62.6166C476.156 59.1452 479.68 56.4935 483.831 54.6614C488.078 52.8293 492.905 51.9132 498.311 51.9132C501.304 51.9132 503.959 52.2025 506.275 52.781C508.689 53.3596 511.102 54.1792 513.516 55.2399V20.8154L535.092 17.344V127.127Z" fill="black"/>
<path d="M551.674 92.1234C551.674 85.3735 552.688 79.4914 554.715 74.4772C556.839 69.3665 559.59 65.1237 562.969 61.7488C566.348 58.3738 570.209 55.8185 574.553 54.0828C578.994 52.3471 583.531 51.4793 588.165 51.4793C598.977 51.4793 607.521 54.806 613.795 61.4595C620.07 68.0166 623.208 77.7075 623.208 90.5323C623.208 91.7859 623.16 93.1841 623.063 94.7269C622.966 96.1733 622.87 97.4751 622.773 98.6322H573.829C574.312 103.068 576.387 106.587 580.056 109.191C583.724 111.795 588.648 113.096 594.826 113.096C598.784 113.096 602.645 112.759 606.41 112.084C610.272 111.312 613.409 110.396 615.823 109.336L618.719 126.837C617.56 127.416 616.016 127.994 614.085 128.573C612.154 129.151 609.982 129.634 607.569 130.019C605.252 130.501 602.742 130.887 600.039 131.176C597.336 131.466 594.633 131.61 591.93 131.61C585.076 131.61 579.091 130.598 573.974 128.573C568.954 126.548 564.755 123.8 561.376 120.328C558.094 116.761 555.632 112.566 553.991 107.745C552.446 102.923 551.674 97.7162 551.674 92.1234ZM602.356 83.8789C602.259 82.0467 601.921 80.2628 601.342 78.5271C600.86 76.7914 600.039 75.2486 598.881 73.8986C597.819 72.5486 596.419 71.4397 594.681 70.5719C593.04 69.704 590.965 69.2701 588.455 69.2701C586.041 69.2701 583.966 69.704 582.228 70.5719C580.49 71.3433 579.042 72.404 577.884 73.754C576.725 75.104 575.808 76.695 575.132 78.5271C574.553 80.2628 574.119 82.0467 573.829 83.8789H602.356Z" fill="black"/>
<path d="M707.482 53.5042C703.138 68.1612 698.601 81.9021 693.87 94.7269C689.14 107.552 683.975 119.991 678.376 132.044C676.349 136.384 674.322 140.048 672.294 143.037C670.267 146.123 668.047 148.63 665.633 150.558C663.22 152.583 660.469 154.03 657.38 154.898C654.387 155.862 650.863 156.344 646.809 156.344C643.43 156.344 640.292 156.006 637.396 155.331C634.597 154.753 632.28 154.078 630.446 153.307L634.211 136.094C636.431 136.866 638.41 137.396 640.148 137.685C641.885 137.975 643.72 138.119 645.65 138.119C649.512 138.119 652.456 137.059 654.483 134.937C656.607 132.912 658.393 130.068 659.841 126.403C654.918 116.761 649.994 105.961 645.071 94.0037C640.148 81.9503 635.514 68.4505 631.17 53.5042H654.049C655.014 57.2649 656.125 61.3631 657.38 65.7987C658.731 70.138 660.131 74.5736 661.579 79.1057C663.027 83.5414 664.475 87.8806 665.923 92.1234C667.468 96.3662 668.916 100.223 670.267 103.695C671.522 100.223 672.825 96.3662 674.177 92.1234C675.528 87.8806 676.832 83.5414 678.087 79.1057C679.438 74.5736 680.693 70.138 681.852 65.7987C683.107 61.3631 684.217 57.2649 685.182 53.5042H707.482Z" fill="black"/>
<path d="M732.129 118.159C732.129 122.498 730.73 125.825 727.93 128.139C725.227 130.357 722.138 131.466 718.663 131.466C715.187 131.466 712.05 130.357 709.25 128.139C706.547 125.825 705.196 122.498 705.196 118.159C705.196 113.82 706.547 110.541 709.25 108.323C712.05 106.009 715.187 104.852 718.663 104.852C722.138 104.852 725.227 106.009 727.93 108.323C730.73 110.541 732.129 113.82 732.129 118.159Z" fill="black"/>
<path d="M778.346 114.543C780.47 114.543 782.497 114.495 784.427 114.398C786.358 114.302 787.903 114.157 789.061 113.964V97.6197C788.192 97.4269 786.889 97.234 785.151 97.0412C783.414 96.8483 781.821 96.7519 780.373 96.7519C778.346 96.7519 776.415 96.8965 774.581 97.1858C772.843 97.3787 771.298 97.8126 769.947 98.4876C768.595 99.1626 767.534 100.079 766.761 101.236C765.989 102.393 765.603 103.839 765.603 105.575C765.603 108.95 766.713 111.312 768.933 112.662C771.25 113.916 774.388 114.543 778.346 114.543ZM776.608 51.4793C782.979 51.4793 788.289 52.2025 792.537 53.6489C796.784 55.0953 800.163 57.1685 802.673 59.8684C805.279 62.5684 807.114 65.8469 808.175 69.704C809.237 73.5611 809.768 77.8521 809.768 82.5771V127.416C806.679 128.091 802.383 128.862 796.881 129.73C791.378 130.694 784.717 131.176 776.898 131.176C771.974 131.176 767.485 130.743 763.431 129.875C759.473 129.007 756.046 127.609 753.15 125.68C750.253 123.655 748.033 121.052 746.489 117.869C744.944 114.687 744.172 110.782 744.172 106.154C744.172 101.718 745.04 97.9572 746.778 94.8716C748.612 91.7859 751.026 89.327 754.018 87.4949C757.011 85.6628 760.438 84.361 764.3 83.5896C768.161 82.7217 772.167 82.2878 776.318 82.2878C779.118 82.2878 781.58 82.4324 783.703 82.7217C785.924 82.9146 787.71 83.2039 789.061 83.5896V81.5646C789.061 77.9004 787.951 74.9593 785.731 72.7415C783.51 70.5237 779.649 69.4148 774.146 69.4148C770.478 69.4148 766.858 69.704 763.286 70.2826C759.714 70.7647 756.625 71.4879 754.018 72.4522L751.267 55.0953C752.522 54.7096 754.067 54.3239 755.901 53.9382C757.832 53.456 759.907 53.0703 762.128 52.781C764.348 52.3953 766.665 52.106 769.078 51.9132C771.588 51.6239 774.098 51.4793 776.608 51.4793Z" fill="black"/>
<path d="M850.854 129.585H829.279V53.5042H850.854V129.585ZM852.882 31.5188C852.882 35.4723 851.579 38.6062 848.972 40.9205C846.462 43.1383 843.469 44.2472 839.994 44.2472C836.519 44.2472 833.478 43.1383 830.871 40.9205C828.362 38.6062 827.107 35.4723 827.107 31.5188C827.107 27.5653 828.362 24.4796 830.871 22.2618C833.478 19.9475 836.519 18.7904 839.994 18.7904C843.469 18.7904 846.462 19.9475 848.972 22.2618C851.579 24.4796 852.882 27.5653 852.882 31.5188Z" fill="black"/>
</svg>
