<?xml version="1.0" standalone="no"?>
<!DOCTYPE svg PUBLIC "-//W3C//DTD SVG 20010904//EN"
 "http://www.w3.org/TR/2001/REC-SVG-20010904/DTD/svg10.dtd">
<svg version="1.0" xmlns="http://www.w3.org/2000/svg"
 width="540.000000pt" height="540.000000pt" viewBox="0 0 540.000000 540.000000"
 preserveAspectRatio="xMidYMid meet">
<metadata>
Created by potrace 1.14, written by Peter Selinger 2001-2017
</metadata>
<g transform="translate(0.000000,540.000000) scale(0.100000,-0.100000)"
fill="#000000" stroke="none">
<path d="M2495 4664 c-99 -35 -396 -144 -660 -240 -1072 -393 -1200 -443
-1200 -474 0 -21 96 -70 245 -126 111 -41 354 -149 583 -259 75 -36 77 -38 73
-69 -3 -17 -8 -74 -11 -126 -6 -97 -19 -165 -33 -174 -5 -3 -37 15 -73 38
-110 75 -414 232 -522 272 -49 17 -104 7 -245 -48 -73 -28 -115 -51 -144 -79
-38 -36 -40 -41 -34 -80 18 -116 100 -153 249 -114 110 29 128 23 366 -120
146 -88 201 -137 201 -178 0 -36 -39 -125 -63 -145 -53 -44 -154 -18 -300 77
-60 38 -121 72 -137 76 -34 7 -95 -22 -280 -133 -266 -160 -310 -198 -310
-272 0 -55 39 -122 82 -143 35 -17 41 -17 90 -3 29 9 118 52 198 96 80 44 160
83 178 86 39 8 210 -57 386 -146 128 -64 148 -85 154 -167 5 -72 -9 -87 -120
-133 -182 -75 -492 -298 -716 -514 -103 -100 -120 -126 -107 -167 11 -35 84
-107 120 -119 59 -19 97 4 367 218 305 242 423 315 510 316 44 1 53 -3 81 -35
18 -19 56 -70 85 -112 30 -44 76 -96 106 -119 l54 -42 -100 -145 c-139 -201
-261 -389 -289 -442 -59 -114 1 -249 110 -249 69 0 101 33 293 292 121 163
243 300 289 323 31 17 44 14 236 -50 175 -59 261 -68 571 -63 l247 5 172 56
c228 75 232 75 315 -10 35 -38 139 -167 230 -289 180 -239 196 -254 283 -254
40 0 52 5 80 33 43 43 53 93 31 151 -41 108 -263 462 -326 521 -72 68 -72 93
6 176 23 26 63 78 87 116 97 152 174 169 319 74 103 -68 334 -242 458 -346
105 -88 184 -135 228 -135 60 0 142 79 142 137 0 63 -72 147 -265 308 -260
217 -427 328 -569 377 -45 15 -82 28 -84 28 -1 0 -11 15 -22 33 -31 51 -26 94
15 133 39 37 393 216 472 238 l51 14 74 -38 c41 -21 106 -57 144 -81 151 -92
206 -106 264 -66 69 47 89 143 43 206 -42 57 -488 351 -532 351 -10 0 -57 -26
-107 -57 -120 -76 -245 -134 -296 -136 -38 -2 -44 2 -74 40 -17 23 -40 63 -50
89 l-18 47 50 45 c27 25 126 95 219 157 l170 113 105 -19 c58 -10 126 -18 152
-19 42 0 50 4 82 42 63 73 57 146 -18 203 -48 36 -111 59 -238 84 l-106 22
-152 -76 c-83 -42 -209 -110 -278 -151 -70 -42 -141 -78 -158 -81 -28 -5 -32
-2 -43 27 -6 18 -11 93 -11 166 l0 134 71 36 c99 50 219 102 470 204 226 93
353 152 364 171 14 22 -24 41 -226 114 -1076 391 -1817 655 -1848 660 -16 3
-96 -21 -206 -61z m-519 -1891 c109 -36 187 -104 233 -203 21 -45 26 -70 26
-141 0 -79 -3 -91 -38 -162 -62 -126 -157 -187 -303 -195 -149 -8 -248 41
-310 153 -48 86 -59 149 -40 225 19 73 56 149 104 213 84 111 205 152 328 110z
m1686 -26 c83 -40 138 -89 170 -150 31 -59 38 -223 13 -313 -34 -127 -150
-213 -295 -222 -95 -5 -168 20 -239 84 -86 78 -141 225 -126 338 16 120 58
193 142 242 124 74 213 79 335 21z"/>
</g>
</svg>
